<svg xmlns="http://www.w3.org/2000/svg" xmlns:xlink="http://www.w3.org/1999/xlink" version="1.1" id="Calque_1" x="0px" y="0px" width="100px" height="100px" viewBox="0 0 100 100" enable-background="new 0 0 100 100" xml:space="preserve">
	<path d="M48.644,81.37c-8.289,8.288-21.727,8.288-30.015,0c-8.289-8.287-8.289-21.726,0-30.016" />
	<path d="M56.707,83.754c1.568-1.57,1.568-4.112,0-5.682l-34.78-34.779c-1.568-1.569-4.111-1.567-5.68,0l0,0  c-1.569,1.569-1.569,4.111,0,5.682l34.778,34.779C52.595,85.321,55.138,85.321,56.707,83.754L56.707,83.754z" />
	<path d="M51.32,18.665c8.288-8.289,21.727-8.289,30.014,0c8.29,8.289,8.29,21.727,0,30.015" />
	<path d="M43.257,16.283c-1.569,1.569-1.568,4.111,0,5.68l34.78,34.779c1.567,1.568,4.111,1.569,5.68,0l0,0  c1.569-1.567,1.569-4.112,0-5.681L48.938,16.283C47.369,14.714,44.827,14.714,43.257,16.283L43.257,16.283z" />
	<path d="M40.6,38.182c1.569-1.569,4.111-1.569,5.68-0.001l0,0c1.568,1.57,1.568,4.113,0,5.682l-9.693,9.692l-5.681-5.679  L40.6,38.182z" />
	<path d="M56.138,53.72c1.569-1.569,4.112-1.569,5.681,0l0,0c1.569,1.567,1.569,4.113,0,5.68l-9.692,9.694l-5.681-5.681L56.138,53.72  z" />
	<path d="M90.387,3.932c1.57-1.569,4.113-1.569,5.681-0.001l0,0c1.568,1.57,1.569,4.113,0,5.682l-14.092,14.09l-5.68-5.679  L90.387,3.932z" />
	<path d="M9.577,96.103c-1.569,1.571-4.112,1.571-5.681,0l0,0c-1.568-1.566-1.568-4.11,0-5.678l14.092-14.094l5.68,5.683  L9.577,96.103z" />
</svg>